<svg width="300" height="200" viewBox="0 0 300 200" fill="none" xmlns="http://www.w3.org/2000/svg">
<g clip-path="url(#clip0_9_14)">
<path d="M300 0H0V200H300V0Z" fill="#1E1E1E"/>
<path d="M200 0H100C44.7715 0 0 44.7715 0 100C0 155.228 44.7715 200 100 200H200C255.228 200 300 155.228 300 100C300 44.7715 255.228 0 200 0Z" fill="white"/>
<path d="M94.5 77.25C93.9167 78.5833 93.3958 79.75 92.9375 80.75C92.4792 81.75 92.0833 82.6042 91.75 83.3125C91.375 84.1042 91.0625 84.8125 90.8125 85.4375C90.6042 85.8958 90.3333 86.5208 90 87.3125C89.6667 88.0208 89.25 88.9583 88.75 90.125C88.2917 91.25 87.6875 92.7083 86.9375 94.5C86.5625 92.9583 86.1042 91.6042 85.5625 90.4375C85.0208 89.2708 84.4375 88.25 83.8125 87.375C83.1875 86.5 82.5208 85.7917 81.8125 85.25C81.1458 84.6667 80.4792 84.1875 79.8125 83.8125C78.2708 82.9792 76.6458 82.5208 74.9375 82.4375C72.6875 82.5625 70.9167 82.9375 69.625 83.5625C68.375 84.1458 67.4583 84.8333 66.875 85.625C66.2917 86.375 65.9792 87.1667 65.9375 88C65.8958 88.7917 66 89.4583 66.25 90C66.4583 90.5 67.1875 91.0833 68.4375 91.75C69.7292 92.4167 71.2708 93.1875 73.0625 94.0625C74.8958 94.8958 76.8542 95.8542 78.9375 96.9375C81.0208 97.9792 82.9375 99.1458 84.6875 100.438C86.4792 101.688 87.9792 103.062 89.1875 104.562C90.4375 106.021 91.125 107.583 91.25 109.25C91.375 111.375 91.3542 113.292 91.1875 115C91.0208 116.708 90.4375 118.167 89.4375 119.375C88.4375 120.583 86.875 121.542 84.75 122.25C82.6667 122.958 79.7708 123.396 76.0625 123.562C72.2292 123.729 69.0833 123.521 66.625 122.938C64.1667 122.354 62.1667 121.562 60.625 120.562C59.125 119.562 58 118.458 57.25 117.25C56.5417 116.042 56.0208 114.896 55.6875 113.812C55.3542 112.688 55.125 111.729 55 110.938C54.875 110.104 54.6667 109.604 54.375 109.438C54.0417 109.229 53.7083 109.042 53.375 108.875C53.0833 108.708 52.7708 108.562 52.4375 108.438C52.1042 108.271 51.7708 108.125 51.4375 108L69.625 105.062C68.5833 105.896 67.7708 106.667 67.1875 107.375C66.6458 108.083 66.2292 108.708 65.9375 109.25C65.6042 109.875 65.375 110.458 65.25 111C65.1667 111.583 65.3542 112.312 65.8125 113.188C66.2708 114.062 66.8958 114.917 67.6875 115.75C68.5208 116.542 69.4792 117.208 70.5625 117.75C71.6458 118.292 72.7708 118.521 73.9375 118.438C75.3958 118.312 76.5833 117.958 77.5 117.375C78.4167 116.75 79.1042 115.979 79.5625 115.062C80.0625 114.146 80.3542 113.146 80.4375 112.062C80.5208 110.979 80.4167 109.917 80.125 108.875C79.875 107.792 79.4583 106.792 78.875 105.875C78.2917 104.917 77.6042 104.125 76.8125 103.5C76.1042 103 75 102.521 73.5 102.062C72.0417 101.604 70.3958 101.104 68.5625 100.562C66.7708 100.021 64.9167 99.3958 63 98.6875C61.125 97.9792 59.4167 97.1042 57.875 96.0625C56.375 95.0208 55.1667 93.7917 54.25 92.375C53.375 90.9583 53.0417 89.25 53.25 87.25C53.4167 85.5417 53.9583 84.125 54.875 83C55.8333 81.8333 57.0208 80.9167 58.4375 80.25C59.8958 79.5417 61.5 79.0208 63.25 78.6875C65.0417 78.3542 66.8542 78.1667 68.6875 78.125C70.5625 78.0417 72.3958 78.0625 74.1875 78.1875C76.0208 78.3125 77.6667 78.4583 79.125 78.625C80.5833 78.7917 81.8125 78.9583 82.8125 79.125C83.8542 79.25 84.5 79.3333 84.75 79.375C85.8333 79.4583 86.9167 79.4375 88 79.3125C88.9583 79.2292 90 79.0417 91.125 78.75C92.2917 78.4167 93.4167 77.9167 94.5 77.25ZM129.438 100.812C128.938 100.729 128.312 100.667 127.562 100.625C126.854 100.583 126.167 100.562 125.5 100.562C124.75 100.562 123.958 100.583 123.125 100.625C122.25 100.667 121.375 100.708 120.5 100.75C119.75 100.792 118.896 100.854 117.938 100.938C117.021 100.979 116.125 101.042 115.25 101.125C115.583 100.958 115.875 100.729 116.125 100.438C116.417 100.146 116.667 99.8542 116.875 99.5625C117.083 99.2292 117.271 98.875 117.438 98.5C117.646 97.875 117.625 97.125 117.375 96.25C117.125 95.3333 116.667 94.5 116 93.75C115.375 93 114.562 92.4167 113.562 92C112.604 91.5417 111.542 91.4375 110.375 91.6875C109.125 91.9792 108 92.4167 107 93C106.042 93.5833 105.229 94.3958 104.562 95.4375C103.938 96.4375 103.479 97.6875 103.188 99.1875C102.938 100.646 102.875 102.396 103 104.438C103.167 106.979 103.583 109 104.25 110.5C104.917 112 105.729 113.125 106.688 113.875C107.646 114.625 108.688 115.083 109.812 115.25C110.979 115.375 112.125 115.375 113.25 115.25C114.042 115.083 114.771 114.729 115.438 114.188C115.979 113.729 116.479 113.062 116.938 112.188C117.396 111.312 117.604 110.104 117.562 108.562L125.188 108.25C124.312 110.708 123.25 112.667 122 114.125C120.75 115.542 119.542 116.646 118.375 117.438C117 118.354 115.625 118.979 114.25 119.312C112.542 119.604 111.021 119.729 109.688 119.688C108.354 119.604 107.146 119.396 106.062 119.062C104.979 118.729 103.979 118.312 103.062 117.812C102.146 117.312 101.271 116.771 100.438 116.188C99.8958 115.812 99.2917 115.188 98.625 114.312C97.9583 113.438 97.3333 112.396 96.75 111.188C96.1667 109.938 95.6875 108.562 95.3125 107.062C94.9375 105.562 94.7917 104.021 94.875 102.438C94.9583 100.812 95.3333 99.1875 96 97.5625C96.6667 95.9375 97.7292 94.375 99.1875 92.875C101.396 90.625 103.75 89.1667 106.25 88.5C108.792 87.7917 111.188 87.6042 113.438 87.9375C115.688 88.2292 117.688 88.875 119.438 89.875C121.188 90.875 122.417 91.9583 123.125 93.125C123.833 94.2917 124.354 95.1875 124.688 95.8125C125.062 96.3958 125.333 96.8542 125.5 97.1875C125.708 97.4792 125.875 97.7083 126 97.875C126.167 98 126.396 98.1875 126.688 98.4375C126.896 98.6458 127.146 98.875 127.438 99.125C127.688 99.3333 127.979 99.5833 128.312 99.875C128.646 100.167 129.021 100.479 129.438 100.812ZM128.188 75.625C129.146 75.7917 130.021 75.9167 130.812 76C131.604 76.0417 132.271 76.0833 132.812 76.125C133.438 76.1667 133.979 76.1875 134.438 76.1875C135.062 76.1458 135.792 76.0833 136.625 76C137.333 75.9167 138.188 75.8125 139.188 75.6875C140.229 75.5625 141.417 75.3958 142.75 75.1875C142.125 75.5208 141.604 75.8542 141.188 76.1875C140.771 76.4792 140.438 76.7917 140.188 77.125C139.896 77.5 139.667 77.8542 139.5 78.1875C139.292 78.7292 139.062 79.8542 138.812 81.5625C138.562 83.0208 138.25 85.1875 137.875 88.0625C137.542 90.9375 137.104 94.8333 136.562 99.75C138.062 98.25 139.479 97.125 140.812 96.375C142.188 95.5833 143.396 95.0208 144.438 94.6875C145.646 94.3125 146.771 94.125 147.812 94.125C149.104 94.25 150.417 94.6667 151.75 95.375C153.125 96.0417 154.396 96.8333 155.562 97.75C156.771 98.6667 157.812 99.6458 158.688 100.688C159.604 101.729 160.25 102.646 160.625 103.438C160.875 103.979 161 104.688 161 105.562C161 106.396 160.917 107.312 160.75 108.312C160.583 109.312 160.354 110.333 160.062 111.375C159.771 112.417 159.479 113.396 159.188 114.312C158.938 115.229 158.708 116.042 158.5 116.75C158.292 117.417 158.167 117.896 158.125 118.188C158.042 118.812 158.083 119.417 158.25 120C158.375 120.5 158.625 121.042 159 121.625C159.375 122.167 159.938 122.625 160.688 123C160.104 122.917 159.479 122.854 158.812 122.812C158.188 122.729 157.583 122.667 157 122.625C156.333 122.583 155.667 122.562 155 122.562H152.75C152.042 122.562 151.229 122.583 150.312 122.625C149.396 122.625 148.396 122.646 147.312 122.688C147.896 122.479 148.396 122.208 148.812 121.875C149.229 121.5 149.583 121.146 149.875 120.812C150.208 120.438 150.5 120.042 150.75 119.625C150.917 119.292 151.125 118.667 151.375 117.75C151.625 116.792 151.854 115.708 152.062 114.5C152.271 113.25 152.417 111.938 152.5 110.562C152.625 109.188 152.646 107.875 152.562 106.625C152.521 105.333 152.333 104.188 152 103.188C151.708 102.188 151.25 101.458 150.625 101C148.75 99.5833 147.042 98.8958 145.5 98.9375C144 98.9375 142.562 99.5417 141.188 100.75C140.688 101.208 140.208 101.667 139.75 102.125C139.333 102.542 138.875 103.042 138.375 103.625C137.875 104.167 137.417 104.729 137 105.312C137 105.938 137.021 106.625 137.062 107.375C137.104 108.125 137.146 108.854 137.188 109.562C137.229 110.354 137.292 111.146 137.375 111.938C137.458 113.146 137.583 114.333 137.75 115.5C137.875 116.5 138.042 117.604 138.25 118.812C138.458 119.979 138.729 121.042 139.062 122C138.521 121.917 137.958 121.896 137.375 121.938C136.792 121.938 136.229 121.938 135.688 121.938C135.062 121.979 134.458 122 133.875 122C133.333 122.042 132.771 122.104 132.188 122.188C131.688 122.271 131.146 122.354 130.562 122.438C129.979 122.479 129.417 122.562 128.875 122.688C129.375 121.729 129.792 120.792 130.125 119.875C130.458 118.917 130.729 118.083 130.938 117.375C131.188 116.542 131.396 115.729 131.562 114.938C131.688 114.312 131.771 113.125 131.812 111.375C131.896 109.583 131.958 107.542 132 105.25C132.042 102.917 132.062 100.458 132.062 97.875C132.062 95.2917 132.042 92.8333 132 90.5C131.958 88.1667 131.875 86.125 131.75 84.375C131.667 82.625 131.562 81.4167 131.438 80.75C131.271 80.0833 131.042 79.4167 130.75 78.75C130.5 78.1667 130.167 77.6042 129.75 77.0625C129.333 76.4792 128.812 76 128.188 75.625ZM180.875 95C181.958 95 183.083 95.2083 184.25 95.625C185.417 96 186.542 96.5 187.625 97.125C188.708 97.7083 189.688 98.3542 190.562 99.0625C191.479 99.7292 192.229 100.375 192.812 101C193.854 102.125 194.562 103.646 194.938 105.562C195.354 107.438 195.438 109.375 195.188 111.375C194.938 113.333 194.354 115.188 193.438 116.938C192.521 118.688 191.25 119.979 189.625 120.812C188.458 121.396 187.312 121.854 186.188 122.188C185.062 122.521 183.979 122.771 182.938 122.938C181.896 123.104 180.917 123.188 180 123.188C179.083 123.188 178.292 123.167 177.625 123.125C176.375 123.042 175.062 122.604 173.688 121.812C172.354 121.021 171.083 120.042 169.875 118.875C168.708 117.708 167.708 116.438 166.875 115.062C166.042 113.646 165.542 112.312 165.375 111.062C165.125 109.354 165.083 107.562 165.25 105.688C165.417 103.812 166.021 102.083 167.062 100.5C168.146 98.9167 169.771 97.6042 171.938 96.5625C174.146 95.5208 177.125 95 180.875 95ZM178.812 119.25C179.271 119.333 179.896 119.229 180.688 118.938C181.479 118.604 182.25 118.083 183 117.375C183.792 116.667 184.479 115.771 185.062 114.688C185.688 113.562 186.062 112.208 186.188 110.625C186.312 109.083 186.312 107.667 186.188 106.375C186.104 105.083 185.917 103.958 185.625 103C185.333 102 185 101.188 184.625 100.562C184.25 99.9375 183.854 99.5 183.438 99.25C182.729 98.875 181.875 98.5833 180.875 98.375C179.875 98.125 179.021 98.1667 178.312 98.5C177.979 98.6667 177.562 99.0208 177.062 99.5625C176.562 100.104 176.062 100.792 175.562 101.625C175.062 102.417 174.604 103.333 174.188 104.375C173.812 105.417 173.542 106.5 173.375 107.625C173.208 108.75 173.167 109.958 173.25 111.25C173.375 112.542 173.646 113.771 174.062 114.938C174.479 116.062 175.062 117.042 175.812 117.875C176.604 118.667 177.604 119.125 178.812 119.25ZM214.938 95C216.021 95 217.146 95.2083 218.312 95.625C219.479 96 220.604 96.5 221.688 97.125C222.771 97.7083 223.75 98.3542 224.625 99.0625C225.542 99.7292 226.292 100.375 226.875 101C227.917 102.125 228.625 103.646 229 105.562C229.417 107.438 229.5 109.375 229.25 111.375C229 113.333 228.417 115.188 227.5 116.938C226.583 118.688 225.312 119.979 223.688 120.812C222.521 121.396 221.375 121.854 220.25 122.188C219.125 122.521 218.042 122.771 217 122.938C215.958 123.104 214.979 123.188 214.062 123.188C213.146 123.188 212.354 123.167 211.688 123.125C210.438 123.042 209.125 122.604 207.75 121.812C206.417 121.021 205.146 120.042 203.938 118.875C202.771 117.708 201.771 116.438 200.938 115.062C200.104 113.646 199.604 112.312 199.438 111.062C199.188 109.354 199.146 107.562 199.312 105.688C199.479 103.812 200.083 102.083 201.125 100.5C202.208 98.9167 203.833 97.6042 206 96.5625C208.208 95.5208 211.188 95 214.938 95ZM212.875 119.25C213.333 119.333 213.958 119.229 214.75 118.938C215.542 118.604 216.312 118.083 217.062 117.375C217.854 116.667 218.542 115.771 219.125 114.688C219.75 113.562 220.125 112.208 220.25 110.625C220.375 109.083 220.375 107.667 220.25 106.375C220.167 105.083 219.979 103.958 219.688 103C219.396 102 219.062 101.188 218.688 100.562C218.312 99.9375 217.917 99.5 217.5 99.25C216.792 98.875 215.938 98.5833 214.938 98.375C213.938 98.125 213.083 98.1667 212.375 98.5C212.042 98.6667 211.625 99.0208 211.125 99.5625C210.625 100.104 210.125 100.792 209.625 101.625C209.125 102.417 208.667 103.333 208.25 104.375C207.875 105.417 207.604 106.5 207.438 107.625C207.271 108.75 207.229 109.958 207.312 111.25C207.438 112.542 207.708 113.771 208.125 114.938C208.542 116.062 209.125 117.042 209.875 117.875C210.667 118.667 211.667 119.125 212.875 119.25ZM233.688 124.75C234.104 124.125 234.438 123.542 234.688 123C234.938 122.458 235.146 122 235.312 121.625C235.479 121.167 235.604 120.75 235.688 120.375C235.729 120.125 235.75 119.396 235.75 118.188C235.75 116.979 235.708 115.458 235.625 113.625C235.583 111.792 235.521 109.729 235.438 107.438C235.396 105.146 235.312 102.812 235.188 100.438C235.104 98.0625 235 95.75 234.875 93.5C234.792 91.25 234.708 89.2292 234.625 87.4375C234.542 85.6042 234.458 84.1042 234.375 82.9375C234.292 81.7708 234.229 81.1042 234.188 80.9375C234.104 80.6875 233.958 80.4375 233.75 80.1875C233.333 79.6875 232.625 79.2083 231.625 78.75C233.75 78.2083 235.375 77.7708 236.5 77.4375C237.167 77.2708 237.75 77.1042 238.25 76.9375C238.708 76.7708 239.167 76.6042 239.625 76.4375C240 76.2708 240.417 76.0833 240.875 75.875C241.333 75.625 241.75 75.3542 242.125 75.0625C241.917 76.2708 241.75 77.4375 241.625 78.5625C241.5 79.6875 241.396 80.7292 241.312 81.6875C241.229 82.7708 241.188 83.8125 241.188 84.8125C240.979 86.8542 240.854 89.0833 240.812 91.5C240.812 93.875 240.833 96.2917 240.875 98.75C240.917 101.208 241 103.604 241.125 105.938C241.25 108.271 241.375 110.396 241.5 112.312C241.667 114.188 241.812 115.792 241.938 117.125C242.104 118.417 242.229 119.25 242.312 119.625C242.479 120.25 242.646 120.854 242.812 121.438C242.979 121.938 243.167 122.458 243.375 123C243.583 123.583 243.833 124.042 244.125 124.375H238.062C237.521 124.375 237 124.396 236.5 124.438C236.042 124.479 235.562 124.521 235.062 124.562C234.562 124.604 234.104 124.667 233.688 124.75Z" fill="#F1CC7A"/>
<path d="M164.178 97.8574C164.858 97.8932 165.592 97.9111 166.38 97.9111C167.06 97.9111 167.83 97.929 168.689 97.9648C169.585 97.9648 170.516 97.929 171.482 97.8574C170.623 98.2513 169.871 98.8242 169.227 99.5762C168.582 100.328 168.063 101.08 167.669 101.832C167.168 102.727 166.756 103.658 166.434 104.625C166.255 105.198 166.111 106.218 166.004 107.687C165.896 109.119 165.807 110.802 165.735 112.735C165.7 114.669 165.682 116.71 165.682 118.858C165.682 121.007 165.7 123.066 165.735 125.035C165.771 126.969 165.825 128.688 165.896 130.191C165.968 131.695 166.058 132.752 166.165 133.36C166.308 134.076 166.487 134.757 166.702 135.401C166.881 135.974 167.114 136.565 167.4 137.174C167.687 137.747 168.045 138.212 168.475 138.57L162.996 141.041C162.71 140.647 162.477 140.235 162.298 139.806C162.119 139.412 161.976 139.054 161.868 138.731C161.725 138.338 161.635 137.979 161.6 137.657C161.528 137.228 161.456 136.762 161.385 136.261C161.313 135.724 161.224 135.222 161.116 134.757C161.045 134.256 160.991 133.844 160.955 133.521C160.919 133.199 160.919 133.002 160.955 132.931C160.991 132.859 160.776 133.181 160.311 133.897C159.845 134.578 159.147 135.383 158.216 136.314C157.321 137.21 156.211 138.087 154.886 138.946C153.561 139.77 152.075 140.289 150.428 140.504C148.745 140.719 147.187 140.396 145.755 139.537C144.358 138.678 143.159 137.478 142.156 135.938C141.154 134.363 140.384 132.555 139.847 130.514C139.345 128.437 139.148 126.324 139.256 124.176C139.327 122.743 139.65 121.472 140.223 120.362C140.796 119.216 141.512 118.232 142.371 117.408C143.266 116.549 144.233 115.833 145.271 115.26C146.346 114.651 147.384 114.15 148.387 113.756C149.425 113.362 150.392 113.076 151.287 112.896C152.182 112.717 152.898 112.592 153.436 112.521C154.08 112.485 154.814 112.592 155.638 112.843C156.354 113.058 157.177 113.416 158.108 113.917C159.075 114.418 160.149 115.17 161.331 116.173C161.116 112.592 160.919 109.728 160.74 107.579C160.561 105.395 160.382 103.73 160.203 102.584C160.024 101.223 159.863 100.292 159.72 99.791C159.541 99.4329 159.308 99.0749 159.021 98.7168C158.771 98.4303 158.449 98.1439 158.055 97.8574C157.697 97.5352 157.267 97.2845 156.766 97.1055C157.697 97.2845 158.592 97.4098 159.451 97.4814C160.311 97.5531 161.098 97.6247 161.814 97.6963C162.638 97.7679 163.426 97.8216 164.178 97.8574ZM150.696 117.892C150.016 118.142 149.461 118.572 149.031 119.181C148.637 119.789 148.315 120.523 148.064 121.383C147.814 122.206 147.635 123.102 147.527 124.068C147.456 124.999 147.402 125.912 147.366 126.808C147.366 127.667 147.366 128.455 147.366 129.171C147.366 129.887 147.366 130.424 147.366 130.782C147.366 130.997 147.402 131.391 147.474 131.964C147.581 132.501 147.796 133.074 148.118 133.683C148.44 134.256 148.888 134.775 149.461 135.24C150.07 135.706 150.875 135.938 151.878 135.938C152.701 135.867 153.579 135.58 154.51 135.079C155.333 134.649 156.264 133.969 157.303 133.038C158.377 132.071 159.523 130.693 160.74 128.902C160.669 127.757 160.615 126.808 160.579 126.056C160.579 125.304 160.561 124.695 160.525 124.229C160.49 123.692 160.472 123.263 160.472 122.94V122.135C160.472 121.92 160.472 121.687 160.472 121.437C160.472 121.186 160.49 120.953 160.525 120.738C159.523 120.022 158.628 119.413 157.84 118.912C157.088 118.375 156.336 117.981 155.584 117.73C154.868 117.444 154.116 117.319 153.328 117.354C152.576 117.354 151.699 117.534 150.696 117.892ZM174.383 117.247C174.562 117.032 174.669 116.638 174.705 116.065C174.777 115.457 174.92 114.776 175.135 114.024C175.385 113.272 175.797 112.485 176.37 111.661C176.943 110.838 177.874 110.068 179.163 109.352C180.416 108.635 181.634 108.206 182.815 108.062C183.997 107.919 185.125 107.973 186.199 108.224C187.273 108.474 188.276 108.868 189.207 109.405C190.174 109.942 191.051 110.533 191.839 111.178C192.376 111.607 192.806 112.234 193.128 113.058C193.45 113.845 193.701 114.741 193.88 115.743C194.059 116.746 194.184 117.802 194.256 118.912C194.363 119.986 194.435 121.043 194.471 122.081C194.507 123.084 194.524 124.015 194.524 124.874C194.56 125.698 194.632 126.378 194.739 126.915C194.882 127.703 195.133 128.383 195.491 128.956C195.849 129.493 196.243 129.959 196.673 130.353C197.103 130.711 197.532 130.997 197.962 131.212C198.392 131.427 198.768 131.588 199.09 131.695C199.305 131.803 199.502 131.874 199.681 131.91C200.039 132.053 200.289 132.053 200.433 131.91C200.218 132.411 200.021 132.841 199.842 133.199C199.663 133.557 199.52 133.862 199.412 134.112C199.269 134.399 199.144 134.632 199.036 134.811C198.929 135.025 198.803 135.222 198.66 135.401C198.553 135.58 198.41 135.777 198.23 135.992C198.051 136.207 197.872 136.44 197.693 136.69C197.228 136.511 196.78 136.297 196.351 136.046C195.957 135.795 195.599 135.562 195.276 135.348C194.882 135.097 194.524 134.846 194.202 134.596C193.88 134.345 193.576 134.059 193.289 133.736C193.038 133.45 192.77 133.146 192.483 132.823C192.233 132.501 192.018 132.143 191.839 131.749C191.624 132.215 191.105 132.877 190.281 133.736C189.493 134.596 188.455 135.383 187.166 136.1C185.877 136.78 184.373 137.263 182.654 137.55C180.971 137.836 179.109 137.639 177.068 136.959C176.173 136.673 175.332 136.261 174.544 135.724C173.756 135.151 173.076 134.47 172.503 133.683C171.966 132.895 171.572 132 171.321 130.997C171.106 129.959 171.124 128.813 171.375 127.56C171.626 126.306 172.073 125.25 172.718 124.391C173.362 123.531 174.132 122.833 175.027 122.296C175.923 121.759 176.925 121.347 178.035 121.061C179.145 120.774 180.291 120.577 181.473 120.47C182.404 120.434 183.335 120.488 184.266 120.631C185.053 120.774 185.877 121.043 186.736 121.437C187.596 121.795 188.33 122.35 188.938 123.102C188.903 121.204 188.831 119.7 188.724 118.59C188.652 117.444 188.58 116.567 188.509 115.958C188.366 115.242 188.24 114.741 188.133 114.454C187.954 114.203 187.757 113.917 187.542 113.595C187.363 113.272 187.13 112.986 186.844 112.735C186.557 112.449 186.199 112.216 185.77 112.037C185.34 111.858 184.839 111.786 184.266 111.822C183.657 111.858 183.174 112.019 182.815 112.306C182.457 112.592 182.171 112.932 181.956 113.326C181.777 113.684 181.67 114.078 181.634 114.508C181.598 114.938 181.616 115.313 181.688 115.636C181.759 115.851 181.867 116.083 182.01 116.334C182.153 116.549 182.35 116.782 182.601 117.032C182.851 117.283 183.191 117.498 183.621 117.677C182.798 117.784 182.063 117.874 181.419 117.945C180.774 117.981 180.219 118.035 179.754 118.106C179.217 118.178 178.751 118.232 178.357 118.268C177.964 118.303 177.498 118.375 176.961 118.482C176.495 118.554 175.923 118.644 175.242 118.751C174.562 118.858 173.774 119.002 172.879 119.181C173.094 118.93 173.291 118.697 173.47 118.482C173.649 118.232 173.81 118.017 173.953 117.838C174.096 117.623 174.24 117.426 174.383 117.247ZM182.439 123.639C181.795 123.674 181.15 123.836 180.506 124.122C179.861 124.373 179.288 124.749 178.787 125.25C178.286 125.715 177.856 126.271 177.498 126.915C177.176 127.524 177.015 128.204 177.015 128.956C177.015 129.708 177.194 130.37 177.552 130.943C177.946 131.48 178.447 131.928 179.056 132.286C179.7 132.644 180.381 132.859 181.097 132.931C181.849 133.002 182.583 132.931 183.299 132.716C183.979 132.465 184.624 132.071 185.232 131.534C185.841 130.961 186.36 130.353 186.79 129.708C187.22 129.028 187.524 128.365 187.703 127.721C187.882 127.04 187.9 126.485 187.757 126.056C187.47 125.125 186.826 124.48 185.823 124.122C184.821 123.728 183.693 123.567 182.439 123.639ZM197.156 111.554C197.872 111.661 198.517 111.751 199.09 111.822C199.627 111.858 200.11 111.894 200.54 111.93C201.006 111.965 201.453 111.983 201.883 111.983C202.277 111.983 202.778 111.965 203.387 111.93C203.888 111.894 204.533 111.858 205.32 111.822C206.144 111.751 207.111 111.661 208.221 111.554C208.149 111.697 208.006 112.145 207.791 112.896C207.576 113.613 207.361 114.508 207.146 115.582C206.932 116.62 206.735 117.784 206.556 119.073C206.412 120.326 206.341 121.58 206.341 122.833C206.377 124.05 206.538 125.214 206.824 126.324C207.111 127.398 207.576 128.276 208.221 128.956C209.581 130.353 210.781 131.194 211.819 131.48C212.894 131.767 213.825 131.731 214.612 131.373C215.4 131.015 216.045 130.478 216.546 129.762C217.047 129.046 217.405 128.383 217.62 127.774C218.157 126.127 218.479 124.391 218.587 122.564C218.659 120.989 218.533 119.234 218.211 117.301C217.889 115.367 217.119 113.398 215.901 111.393C216.832 111.464 217.638 111.518 218.318 111.554C218.999 111.59 219.59 111.625 220.091 111.661C220.664 111.697 221.165 111.733 221.595 111.769C221.989 111.804 222.454 111.804 222.991 111.769C223.457 111.769 224.012 111.751 224.656 111.715C225.337 111.643 226.089 111.572 226.912 111.5C227.055 115.009 227.181 118.142 227.288 120.899C227.396 123.621 227.467 126.038 227.503 128.15C227.575 130.227 227.61 132.035 227.61 133.575C227.61 135.079 227.61 136.35 227.61 137.389C227.575 139.859 227.467 141.489 227.288 142.276C227.002 143.386 226.482 144.496 225.73 145.606C225.014 146.716 224.101 147.701 222.991 148.561C221.881 149.456 220.592 150.136 219.124 150.602C217.692 151.103 216.116 151.282 214.397 151.139C212.715 150.995 211.372 150.763 210.369 150.44C209.402 150.154 208.632 149.814 208.06 149.42C207.522 149.026 207.129 148.614 206.878 148.185C206.663 147.755 206.502 147.307 206.395 146.842C206.287 146.412 206.18 146 206.072 145.606C205.965 145.213 205.75 144.872 205.428 144.586C205.034 144.264 204.622 143.941 204.192 143.619C203.799 143.333 203.369 143.046 202.903 142.76C202.474 142.473 202.044 142.241 201.614 142.062L213.055 141.417C212.732 141.847 212.5 142.241 212.356 142.599C212.213 142.957 212.124 143.261 212.088 143.512C212.052 143.834 212.07 144.103 212.142 144.317C212.285 144.747 212.535 145.213 212.894 145.714C213.287 146.251 213.789 146.663 214.397 146.949C215.006 147.271 215.722 147.379 216.546 147.271C217.405 147.164 218.372 146.716 219.446 145.929C220.341 145.248 221.093 144.156 221.702 142.652C222.203 141.363 222.597 139.555 222.884 137.228C223.17 134.9 223.117 131.839 222.723 128.043C222.078 130.263 221.201 131.964 220.091 133.146C218.981 134.327 217.871 135.187 216.761 135.724C215.472 136.368 214.129 136.708 212.732 136.744C210.87 136.673 209.277 136.44 207.952 136.046C206.627 135.616 205.535 135.043 204.676 134.327C203.816 133.611 203.136 132.77 202.635 131.803C202.169 130.8 201.829 129.69 201.614 128.473C201.399 127.255 201.292 126.038 201.292 124.82C201.292 123.567 201.292 122.403 201.292 121.329C201.328 120.255 201.346 119.288 201.346 118.429C201.346 117.534 201.256 116.817 201.077 116.28C200.862 115.743 200.576 115.206 200.218 114.669C199.931 114.203 199.537 113.702 199.036 113.165C198.499 112.592 197.872 112.055 197.156 111.554ZM254.896 108.331C254.573 109.119 254.287 109.835 254.036 110.479C253.821 111.124 253.624 111.697 253.445 112.198C253.266 112.771 253.105 113.272 252.962 113.702C252.819 114.203 252.658 114.776 252.479 115.421C252.299 115.994 252.067 116.71 251.78 117.569C251.53 118.393 251.225 119.378 250.867 120.523C250.581 118.805 250.062 117.444 249.31 116.441C248.558 115.403 247.788 114.597 247 114.024C246.069 113.38 245.066 112.914 243.992 112.628C242.059 112.306 240.662 112.341 239.803 112.735C238.943 113.129 238.37 113.631 238.084 114.239C237.941 114.49 237.78 114.812 237.601 115.206C237.457 115.564 237.332 115.94 237.225 116.334C237.153 116.728 237.135 117.122 237.171 117.516C237.207 117.91 237.368 118.232 237.654 118.482C237.833 118.661 238.299 118.912 239.051 119.234C239.803 119.521 240.698 119.861 241.736 120.255C242.811 120.613 243.938 121.007 245.12 121.437C246.338 121.866 247.483 122.296 248.558 122.726C249.632 123.155 250.563 123.585 251.351 124.015C252.138 124.444 252.658 124.838 252.908 125.196C253.123 125.554 253.356 126.038 253.606 126.646C253.893 127.219 254.09 127.864 254.197 128.58C254.34 129.26 254.376 129.977 254.305 130.729C254.269 131.445 254.072 132.161 253.714 132.877C253.356 133.593 252.783 134.256 251.995 134.864C251.243 135.473 250.223 135.974 248.934 136.368C247.43 136.834 245.979 136.959 244.583 136.744C243.187 136.529 241.897 136.207 240.716 135.777C239.57 135.348 238.567 134.936 237.708 134.542C236.849 134.112 236.24 133.933 235.882 134.005C235.488 134.076 235.04 134.273 234.539 134.596C234.038 134.918 233.554 135.258 233.089 135.616C232.659 135.938 232.283 136.243 231.961 136.529C231.639 136.78 231.478 136.869 231.478 136.798C231.478 136.726 231.531 136.511 231.639 136.153C231.782 135.795 231.925 135.366 232.068 134.864C232.247 134.327 232.409 133.754 232.552 133.146C232.731 132.501 232.856 131.892 232.928 131.319C232.999 130.854 233.089 130.281 233.196 129.601C233.268 128.992 233.357 128.258 233.465 127.398C233.608 126.503 233.769 125.429 233.948 124.176C234.127 125.107 234.378 125.912 234.7 126.593C235.058 127.273 235.398 127.864 235.721 128.365C236.115 128.938 236.491 129.422 236.849 129.815C237.386 130.317 238.012 130.782 238.729 131.212C239.48 131.642 240.232 132.018 240.984 132.34C241.736 132.626 242.452 132.805 243.133 132.877C243.813 132.949 244.386 132.877 244.852 132.662C245.317 132.447 245.711 132.053 246.033 131.48C246.391 130.908 246.642 130.281 246.785 129.601C246.928 128.92 246.982 128.276 246.946 127.667C246.91 127.022 246.749 126.503 246.463 126.109C246.248 125.859 245.747 125.536 244.959 125.143C244.207 124.749 243.294 124.319 242.22 123.854C241.181 123.388 240.071 122.905 238.89 122.403C237.744 121.902 236.652 121.401 235.613 120.899C234.611 120.362 233.769 119.861 233.089 119.396C232.444 118.894 232.086 118.447 232.015 118.053C231.943 117.48 231.889 116.853 231.854 116.173C231.818 115.457 231.854 114.758 231.961 114.078C232.104 113.362 232.355 112.682 232.713 112.037C233.107 111.393 233.68 110.855 234.432 110.426C234.933 110.139 235.595 109.924 236.419 109.781C237.243 109.638 238.156 109.566 239.158 109.566C240.161 109.531 241.199 109.566 242.273 109.674C243.348 109.745 244.368 109.853 245.335 109.996C246.338 110.104 247.233 110.247 248.021 110.426C248.844 110.605 249.471 110.766 249.9 110.909C250.402 111.088 250.939 111.106 251.512 110.963C252.013 110.855 252.55 110.623 253.123 110.265C253.696 109.907 254.287 109.262 254.896 108.331Z" fill="black"/>
<path d="M152.503 111C152.227 112.378 152.003 116 151.003 119C150.003 122 160.004 122.501 160.002 122.5C156.5 120 158.5 116.5 160.002 111.5C160.002 111.5 152.778 109.622 152.503 111Z" fill="#F1CC7A"/>
<path d="M188 121.5C186 123 179.5 125 174 122C173.793 121.887 176 119 176 119L181 120.5L185 119L188 121.5Z" fill="#F1CC7A"/>
<path d="M208 114.5C207 111 207 109 208 105H200C200 105 198.5 110 200 113C201.5 116 202 118 207 121.5C212 125 208 114.5 208 114.5Z" fill="#F1CC7A"/>
</g>
<defs>
<clipPath id="clip0_9_14">
<rect width="300" height="200" fill="white"/>
</clipPath>
</defs>
</svg>
